# xmcd CD database file
#
# Track frame offsets:
#	150
#	17031
#	34899
#	67576
#	99722
#	132311
#	174700
#
# Disc length: 2775 seconds
#
# Revision: 0
# Processed by: cddbd v1.5PL3 Copyright (c) Steve Scherf et al.
# Submitted via: CDex 1.51
#
DISCID=570ad507
DTITLE=Clive Ritche and The Beach Band - Fregene Beach
DYEAR=2003
DGENRE=Jazz
TTITLE0=Fregene Beach
TTITLE1=Hi Hi Louis
TTITLE2=Just the Blues
TTITLE3=Omaggio ad Horace Silver
TTITLE4=Running Away
TTITLE5=Blue Tree
TTITLE6=Chet in the Sky
EXTD=YEAR: 2003
EXTT0=
EXTT1=
EXTT2=
EXTT3=
EXTT4=
EXTT5=
EXTT6=
PLAYORDER=
